<svg width="147" height="147" viewBox="0 0 147 147" fill="none" xmlns="http://www.w3.org/2000/svg">
<g clip-path="url(#clip0_11_29)">
<path d="M120.539 0H26.4624C18.3532 0 11.7589 6.59349 11.7589 14.6986V132.304C11.7589 140.407 18.3524 146.999 26.4624 146.999H120.539C128.647 146.999 135.24 140.407 135.24 132.304V14.7035C135.244 6.59754 128.652 0 120.539 0ZM129.363 132.304C129.363 137.169 125.405 141.125 120.539 141.125H26.4624C21.5981 141.125 17.6424 137.169 17.6424 132.304V14.7035C17.6424 9.83911 21.5981 5.88351 26.4624 5.88351H120.539C125.401 5.88351 129.357 9.83911 129.357 14.7035V132.305H129.363V132.304Z" fill="#B6244F"/>
<path d="M104.503 64.2731H42.5047C41.0126 64.2731 39.8076 65.4829 39.8076 66.9751C39.8076 68.4664 41.0126 69.677 42.5047 69.677H104.502C105.996 69.677 107.201 68.4672 107.201 66.9751C107.201 65.4837 105.996 64.2731 104.503 64.2731Z" fill="#B6244F"/>
<path d="M104.503 76.5853H42.5047C41.0126 76.5853 39.8076 77.7976 39.8076 79.2897C39.8076 80.7819 41.0126 81.9885 42.5047 81.9885H104.502C105.996 81.9885 107.201 80.7819 107.201 79.2897C107.197 77.7895 105.996 76.5853 104.503 76.5853Z" fill="#B6244F"/>
<path d="M104.503 88.8936H42.5047C41.0126 88.8936 39.8076 90.1058 39.8076 91.5963C39.8076 93.0885 41.0126 94.2967 42.5047 94.2967H104.502C105.996 94.2967 107.201 93.0885 107.201 91.5963C107.201 90.1058 105.996 88.8936 104.503 88.8936Z" fill="#B6244F"/>
<path d="M104.503 101.205H73.5013C72.0115 101.205 70.8009 102.412 70.8009 103.905C70.8009 105.397 72.0115 106.609 73.5013 106.609H104.502C105.996 106.609 107.197 105.397 107.197 103.905C107.197 102.412 105.996 101.205 104.503 101.205Z" fill="#B6244F"/>
<path d="M104.503 125.519H82.8C81.3029 125.519 80.1013 126.727 80.1013 128.219C80.1013 129.71 81.3029 130.918 82.8 130.918H104.503C105.996 130.918 107.197 129.71 107.197 128.219C107.197 126.727 105.996 125.519 104.503 125.519Z" fill="#B6244F"/>
<path d="M76.5124 52.4031C76.5124 47.2929 70.6289 40.4 62.6869 38.386C66.0047 36.1547 68.2912 31.7479 68.2912 27.7793C68.2912 22.1823 63.7587 17.64 58.1568 17.64C52.5613 17.64 48.0223 22.1823 48.0223 27.7793C48.0223 31.7439 50.3089 36.1506 53.6194 38.386C45.6887 40.3991 39.8011 47.2969 39.8011 52.4031C39.8076 58.4416 76.5124 58.4416 76.5124 52.4031ZM57.3397 41.3274H57.2934L55.6155 39.4003C56.4358 39.6908 57.2723 39.8685 58.1576 39.8685C59.0445 39.8685 59.8818 39.6957 60.7005 39.4044L59.0177 41.3266H58.9779L63.3084 51.7897L58.1576 56.9275L53.0125 51.7897L57.3397 41.3274Z" fill="#B6244F"/>
</g>
<defs>
<clipPath id="clip0_11_29">
<rect width="147" height="147" fill="white"/>
</clipPath>
</defs>
</svg>
