<svg width="147" height="146" viewBox="0 0 147 146" fill="none" xmlns="http://www.w3.org/2000/svg">
<path d="M25 66.9167H61.5C63.1134 66.9167 64.6607 66.2757 65.8016 65.1349C66.9424 63.9941 67.5834 62.4467 67.5834 60.8333V24.3333C67.5834 22.7199 66.9424 21.1726 65.8016 20.0318C64.6607 18.8909 63.1134 18.25 61.5 18.25H25C23.3866 18.25 21.8393 18.8909 20.6985 20.0318C19.5576 21.1726 18.9167 22.7199 18.9167 24.3333V60.8333C18.9167 62.4467 19.5576 63.9941 20.6985 65.1349C21.8393 66.2757 23.3866 66.9167 25 66.9167ZM31.0834 30.4167H55.4167V54.75H31.0834V30.4167ZM122.333 18.25H85.8334C84.22 18.25 82.6726 18.8909 81.5318 20.0318C80.3909 21.1726 79.75 22.7199 79.75 24.3333V60.8333C79.75 62.4467 80.3909 63.9941 81.5318 65.1349C82.6726 66.2757 84.22 66.9167 85.8334 66.9167H122.333C123.947 66.9167 125.494 66.2757 126.635 65.1349C127.776 63.9941 128.417 62.4467 128.417 60.8333V24.3333C128.417 22.7199 127.776 21.1726 126.635 20.0318C125.494 18.8909 123.947 18.25 122.333 18.25ZM116.25 54.75H91.9167V30.4167H116.25V54.75ZM61.5 127.75C63.1134 127.75 64.6607 127.109 65.8016 125.968C66.9424 124.827 67.5834 123.28 67.5834 121.667V85.1667C67.5834 83.5533 66.9424 82.006 65.8016 80.8651C64.6607 79.7243 63.1134 79.0833 61.5 79.0833H25C23.3866 79.0833 21.8393 79.7243 20.6985 80.8651C19.5576 82.006 18.9167 83.5533 18.9167 85.1667V121.667C18.9167 123.28 19.5576 124.827 20.6985 125.968C21.8393 127.109 23.3866 127.75 25 127.75H61.5ZM31.0834 91.25H55.4167V115.583H31.0834V91.25ZM110.167 85.1667H98V97.3333H85.8334V109.5H98V121.667H110.167V109.5H122.333V97.3333H110.167V85.1667Z" fill="#B6244F"/>
</svg>
