<svg width="85" height="85" viewBox="0 0 85 85" fill="none" xmlns="http://www.w3.org/2000/svg">
<path d="M65.5208 50.4687V24.7917C65.5208 23.8524 65.1477 22.9515 64.4835 22.2873C63.8193 21.6231 62.9185 21.25 61.9792 21.25C61.0399 21.25 60.139 21.6231 59.4748 22.2873C58.8106 22.9515 58.4375 23.8524 58.4375 24.7917V50.4687C58.4375 51.4081 58.8106 52.3089 59.4748 52.9731C60.139 53.6373 61.0399 54.0104 61.9792 54.0104C62.9185 54.0104 63.8193 53.6373 64.4835 52.9731C65.1477 52.3089 65.5208 51.4081 65.5208 50.4687Z" fill="#B6244F"/>
<path d="M53.3021 69.4167C50.732 71.4577 47.5527 72.5798 44.2709 72.6042H41.0834C33.1146 72.6042 25.6771 66.5833 25.1459 59.6771L23.0209 33.2917C22.9766 32.8257 22.8404 32.3731 22.6202 31.9601C22.4 31.547 22.1 31.1817 21.7378 30.8853C21.3755 30.5889 20.9581 30.3673 20.5096 30.2332C20.0611 30.0991 19.5906 30.0553 19.125 30.1042C18.6591 30.1484 18.2065 30.2846 17.7934 30.5048C17.3804 30.7251 17.0151 31.025 16.7187 31.3873C16.4223 31.7495 16.2007 32.167 16.0666 32.6154C15.9325 33.0639 15.8886 33.5345 15.9375 34L18.0625 60.2083C18.948 70.8333 29.573 79.6875 41.0834 79.6875H44.2709C49.2517 79.656 54.0686 77.9044 57.9063 74.7292C58.6046 74.1148 59.0331 73.2503 59.0994 72.3226C59.1657 71.3948 58.8643 70.4783 58.2605 69.7708C57.9706 69.4037 57.6074 69.101 57.1939 68.8822C56.7805 68.6633 56.326 68.533 55.8594 68.4997C55.3928 68.4664 54.9244 68.5307 54.4841 68.6886C54.0438 68.8465 53.6412 69.0945 53.3021 69.4167Z" fill="#B6244F"/>
<path d="M51.3542 42.5C52.2935 42.5 53.1943 42.1269 53.8585 41.4627C54.5227 40.7985 54.8958 39.8976 54.8958 38.9583V14.1667C54.8958 13.2274 54.5227 12.3265 53.8585 11.6623C53.1943 10.9981 52.2935 10.625 51.3542 10.625C50.4149 10.625 49.514 10.9981 48.8498 11.6623C48.1856 12.3265 47.8125 13.2274 47.8125 14.1667V38.9583C47.8125 39.8976 48.1856 40.7985 48.8498 41.4627C49.514 42.1269 50.4149 42.5 51.3542 42.5Z" fill="#B6244F"/>
<path d="M40.7292 42.5C41.6685 42.5 42.5693 42.1269 43.2335 41.4627C43.8977 40.7985 44.2708 39.8976 44.2708 38.9583V8.85417C44.2708 7.91486 43.8977 7.01402 43.2335 6.34983C42.5693 5.68564 41.6685 5.3125 40.7292 5.3125C39.7899 5.3125 38.889 5.68564 38.2248 6.34983C37.5606 7.01402 37.1875 7.91486 37.1875 8.85417V38.9583C37.1875 39.8976 37.5606 40.7985 38.2248 41.4627C38.889 42.1269 39.7899 42.5 40.7292 42.5Z" fill="#B6244F"/>
<path d="M30.1042 42.5C31.0435 42.5 31.9443 42.1269 32.6085 41.4627C33.2727 40.7985 33.6458 39.8976 33.6458 38.9583V14.1667C33.6458 13.2274 33.2727 12.3265 32.6085 11.6623C31.9443 10.9981 31.0435 10.625 30.1042 10.625C29.1649 10.625 28.264 10.9981 27.5998 11.6623C26.9356 12.3265 26.5625 13.2274 26.5625 14.1667V38.9583C26.5625 39.8976 26.9356 40.7985 27.5998 41.4627C28.264 42.1269 29.1649 42.5 30.1042 42.5Z" fill="#B6244F"/>
<path d="M29.75 51.3542C29.2804 51.3542 28.8299 51.5407 28.4979 51.8728C28.1658 52.2049 27.9792 52.6553 27.9792 53.125C27.9792 53.5947 28.1658 54.0451 28.4979 54.3772C28.8299 54.7093 29.2804 54.8958 29.75 54.8958L32.9375 55.4271L33.6459 58.7917C33.6459 59.2613 33.8324 59.7117 34.1645 60.0438C34.4966 60.3759 34.947 60.5625 35.4167 60.5625C35.8863 60.5625 36.3368 60.3759 36.6689 60.0438C37.001 59.7117 37.1875 59.2613 37.1875 58.7917L37.8959 55.4271L41.0834 54.8958C41.553 54.8958 42.0034 54.7093 42.3355 54.3772C42.6676 54.0451 42.8542 53.5947 42.8542 53.125C42.8542 52.6553 42.6676 52.2049 42.3355 51.8728C42.0034 51.5407 41.553 51.3542 41.0834 51.3542L37.8959 50.8229L37.1875 47.4583C37.1875 46.9887 37.001 46.5383 36.6689 46.2062C36.3368 45.8741 35.8863 45.6875 35.4167 45.6875C34.947 45.6875 34.4966 45.8741 34.1645 46.2062C33.8324 46.5383 33.6459 46.9887 33.6459 47.4583L32.9375 50.8229L29.75 51.3542Z" fill="#B6244F"/>
<path d="M80.0417 61.0937L74.0209 59.8542L72.6042 53.6562C72.6042 53.1866 72.4176 52.7362 72.0855 52.4041C71.7534 52.072 71.303 51.8854 70.8334 51.8854C70.3637 51.8854 69.9133 52.072 69.5812 52.4041C69.2491 52.7362 69.0625 53.1866 69.0625 53.6562L67.6459 59.8542L61.625 61.0937C61.1554 61.0937 60.7049 61.2803 60.3729 61.6124C60.0408 61.9445 59.8542 62.3949 59.8542 62.8646C59.8542 63.3342 60.0408 63.7846 60.3729 64.1167C60.7049 64.4488 61.1554 64.6354 61.625 64.6354L67.6459 65.875L69.0625 72.0729C69.0625 72.5426 69.2491 72.993 69.5812 73.3251C69.9133 73.6572 70.3637 73.8437 70.8334 73.8437C71.303 73.8437 71.7534 73.6572 72.0855 73.3251C72.4176 72.993 72.6042 72.5426 72.6042 72.0729L74.0209 65.875L80.0417 64.6354C80.5113 64.6354 80.9618 64.4488 81.2939 64.1167C81.626 63.7846 81.8125 63.3342 81.8125 62.8646C81.8125 62.3949 81.626 61.9445 81.2939 61.6124C80.9618 61.2803 80.5113 61.0937 80.0417 61.0937Z" fill="#B6244F"/>
<path d="M21.25 14.1667C21.2584 13.7524 21.1212 13.3483 20.8623 13.0247C20.6035 12.7012 20.2394 12.4786 19.8333 12.3958L15.2292 11.5104L14.1667 6.72916C14.0839 6.32315 13.8613 5.95903 13.5378 5.70018C13.2142 5.44133 12.8101 5.30414 12.3958 5.31249C11.9816 5.30414 11.5775 5.44133 11.2539 5.70018C10.9303 5.95903 10.7078 6.32315 10.625 6.72916L9.56251 11.5104L4.95835 12.3958C4.55234 12.4786 4.18822 12.7012 3.92937 13.0247C3.67051 13.3483 3.53333 13.7524 3.54168 14.1667C3.53333 14.5809 3.67051 14.985 3.92937 15.3086C4.18822 15.6322 4.55234 15.8547 4.95835 15.9375L9.56251 16.8229L10.625 21.6042C10.7078 22.0102 10.9303 22.3743 11.2539 22.6331C11.5775 22.892 11.9816 23.0292 12.3958 23.0208C12.8101 23.0292 13.2142 22.892 13.5378 22.6331C13.8613 22.3743 14.0839 22.0102 14.1667 21.6042L15.2292 16.8229L19.8333 15.9375C20.2394 15.8547 20.6035 15.6322 20.8623 15.3086C21.1212 14.985 21.2584 14.5809 21.25 14.1667Z" fill="#B6244F"/>
</svg>
