<svg width="146" height="146" viewBox="0 0 146 146" fill="none" xmlns="http://www.w3.org/2000/svg">
<path d="M115.522 42.705C115.853 43.5625 116.435 44.3001 117.193 44.8211C117.95 45.3421 118.847 45.6223 119.766 45.625C120.328 45.6208 120.885 45.5125 121.408 45.3057C122.531 44.8673 123.435 44.0022 123.923 42.8994C124.41 41.7965 124.441 40.5456 124.009 39.4201C121.898 34.0141 118.941 28.9781 115.249 24.5007C114.456 23.6528 113.37 23.139 112.211 23.064C111.053 22.989 109.909 23.3584 109.014 24.097C108.118 24.8356 107.537 25.8878 107.391 27.0394C107.244 28.1909 107.541 29.3552 108.222 30.295C111.297 34.0193 113.761 38.2081 115.522 42.705ZM100.375 22.8125C101.585 22.8125 102.746 22.3319 103.601 21.4762C104.457 20.6206 104.938 19.4601 104.938 18.25C104.917 17.6366 104.774 17.0335 104.515 16.4769C104.256 15.9203 103.888 15.4216 103.432 15.0107C103.043 14.5888 102.57 14.2531 102.044 14.0252C101.517 13.7973 100.949 13.6823 100.375 13.6875C99.165 13.6875 98.0045 14.1682 97.1488 15.0239C96.2932 15.8795 95.8125 17.04 95.8125 18.25C95.8302 18.9085 95.9903 19.5552 96.2817 20.1459C96.5731 20.7366 96.9889 21.2572 97.5006 21.6719C98.2968 22.3751 99.3133 22.7785 100.375 22.8125ZM41.0625 59.3125C41.0625 65.6292 42.9356 71.804 46.4449 77.0561C49.9543 82.3082 54.9422 86.4017 60.778 88.819C66.6139 91.2362 73.0354 91.8687 79.2307 90.6364C85.426 89.4041 91.1167 86.3623 95.5832 81.8958C100.05 77.4292 103.092 71.7385 104.324 65.5432C105.556 59.348 104.924 52.9264 102.506 47.0906C100.089 41.2548 95.9956 36.2668 90.7435 32.7575C85.4914 29.2482 79.3166 27.375 73 27.375C64.5296 27.375 56.4062 30.7399 50.4168 36.7293C44.4273 42.7188 41.0625 50.8422 41.0625 59.3125ZM95.8125 59.3125C95.8125 63.8244 94.4746 68.235 91.9679 71.9865C89.4612 75.738 85.8984 78.6619 81.73 80.3885C77.5615 82.1152 72.9747 82.5669 68.5495 81.6867C64.1243 80.8065 60.0595 78.6338 56.8691 75.4434C53.6787 72.253 51.5061 68.1882 50.6258 63.763C49.7456 59.3379 50.1974 54.751 51.924 50.5826C53.6506 46.4141 56.5746 42.8513 60.3261 40.3447C64.0776 37.838 68.4881 36.5 73 36.5C79.0503 36.5 84.8527 38.9035 89.1309 43.1817C93.409 47.4599 95.8125 53.2623 95.8125 59.3125Z" fill="#B6244F"/>
<path d="M140.114 119.948L114.792 94.6263C123.168 84.7669 127.761 72.2489 127.75 59.3125C127.75 58.1025 127.269 56.942 126.414 56.0863C125.558 55.2307 124.398 54.75 123.187 54.75C121.977 54.75 120.817 55.2307 119.961 56.0863C119.106 56.942 118.625 58.1025 118.625 59.3125C118.619 66.7311 116.805 74.0364 113.338 80.5953C109.872 87.1543 104.859 92.7691 98.7325 96.9531L94.17 99.6906C87.6507 103.127 80.3923 104.923 73.0228 104.923C65.6533 104.923 58.3949 103.127 51.8756 99.6906L47.3131 96.9531C38.4258 90.8303 31.9966 81.7552 29.1678 71.3402C26.339 60.9252 27.2938 49.8447 31.8625 40.0671C36.4312 30.2895 44.3181 22.448 54.1218 17.9357C63.9256 13.4234 75.0115 12.5325 85.41 15.4213C85.9999 15.6355 86.6278 15.7258 87.2542 15.6864C87.8806 15.6469 88.4922 15.4787 89.0506 15.1921C89.609 14.9056 90.1023 14.5069 90.4996 14.0209C90.897 13.535 91.1897 12.9724 91.3597 12.3682C91.5296 11.7639 91.5731 11.1311 91.4873 10.5094C91.4015 9.88759 91.1884 9.29019 90.8612 8.75455C90.534 8.21891 90.0998 7.75654 89.5858 7.39635C89.0717 7.03617 88.4889 6.78592 87.8737 6.66126C76.6083 3.51913 64.6328 4.06699 53.7013 8.22459C42.7698 12.3822 33.457 19.931 27.1269 29.7653C20.7969 39.5996 17.7823 51.2024 18.5248 62.8743C19.2673 74.5461 23.7279 85.6734 31.2531 94.6263L5.88561 119.948C5.24216 120.586 4.80334 121.402 4.62508 122.29C4.44683 123.179 4.53722 124.1 4.88473 124.937C5.23224 125.774 5.82113 126.489 6.57631 126.99C7.33149 127.491 8.21876 127.755 9.12498 127.75H24.09L27.6031 138.335C27.8475 139.076 28.2778 139.742 28.853 140.269C29.4281 140.796 30.1288 141.167 30.8881 141.346L31.9375 141.438C32.5379 141.441 33.1332 141.326 33.6891 141.099C34.2449 140.872 34.7505 140.537 35.1769 140.114L62.2781 113.013C69.3551 114.438 76.6449 114.438 83.7219 113.013L110.823 140.114C111.249 140.537 111.755 140.872 112.311 141.099C112.867 141.326 113.462 141.441 114.062 141.438H115.112C115.871 141.258 116.572 140.887 117.147 140.36C117.722 139.833 118.152 139.167 118.397 138.426L121.91 127.75H136.875C137.781 127.755 138.668 127.491 139.424 126.99C140.179 126.489 140.768 125.774 141.115 124.937C141.463 124.1 141.553 123.179 141.375 122.29C141.197 121.402 140.758 120.586 140.114 119.948ZM51.9669 110.413L33.7169 128.663L31.4812 122.001C31.2354 121.08 30.7071 120.259 29.9706 119.653C29.2341 119.048 28.3264 118.688 27.375 118.625H20.1206L37.1844 101.561L42.2487 104.573C43.9239 105.702 45.6603 106.738 47.45 107.675L51.9669 110.413ZM118.625 118.625C117.668 118.623 116.735 118.921 115.958 119.477C115.18 120.034 114.597 120.821 114.291 121.728L112.055 128.389L93.805 110.139L98.3675 107.447C100.157 106.509 101.894 105.474 103.569 104.344L108.633 101.333L125.879 118.625H118.625Z" fill="#B6244F"/>
</svg>
