<svg width="147" height="146" viewBox="0 0 147 146" fill="none" xmlns="http://www.w3.org/2000/svg">
<g clip-path="url(#clip0_11_39)">
<path fill-rule="evenodd" clip-rule="evenodd" d="M73.3334 1.14062L93.6112 19.5366L120.978 18.4822L124.685 45.622L146.333 62.3958L131.733 85.5611L137.533 112.336L111.456 120.69L98.6887 144.918L73.3334 134.56L47.978 144.918L35.2112 120.69L9.1339 112.336L14.9334 85.5611L0.333374 62.3958L21.9819 45.622L25.6887 18.4822L53.0556 19.5366L73.3334 1.14062ZM73.3334 12.0906L58.4982 25.547L56.0486 27.7694L52.7392 27.6478L32.721 26.8772L30.0119 46.717L29.5658 50.002L26.9459 52.0216L11.1212 64.2938L21.7954 81.2459L23.5636 84.0362L22.8579 87.2806L18.6239 106.853L37.6932 112.968L40.8484 113.982L42.3976 116.91L51.7254 134.625L70.2674 127.057L73.3334 125.8L76.3994 127.057L94.9414 134.625L104.277 116.91L105.818 113.982L108.974 112.968L128.043 106.853L123.809 87.2806L123.103 84.0362L124.871 81.2459L135.554 64.2938L119.721 52.0216L117.101 50.002L116.655 46.717L113.938 26.8772L93.9356 27.6478L90.6182 27.7694L88.1686 25.547L73.3334 12.0906ZM99.2678 58.7409L104.175 65.2054L61.47 97.6174L42.0764 78.2238L47.811 72.4892L62.2 86.8783L99.2678 58.7409Z" fill="#B6244F"/>
</g>
<defs>
<clipPath id="clip0_11_39">
<rect width="146" height="146" fill="white" transform="translate(0.333374)"/>
</clipPath>
</defs>
</svg>
